<svg xmlns="http://www.w3.org/2000/svg" viewBox="0 0 200 50">
  <path d="M10,10 L30,10 Q40,10 40,20 Q40,25 35,27.5 Q43,30 43,37.5 Q43,40 41.5,42.5 Q40,45 35,45 L10,45 Z" fill="#00bffe"/>
  <path d="M18,20 L18,25 L28,25 Q30,25 30,22.5 Q30,20 28,20 Z" fill="white"/>
  <path d="M18,30 L18,35 L30,35 Q32,35 32,32.5 Q32,30 30,30 Z" fill="white"/>
  <path d="M55,10 L75,10 Q80,10 82.5,12.5 Q85,15 85,20 L85,35 Q85,40 80,40 L55,40 L55,10 Z M65,20 L65,30 L75,30 Q77,30 77,25 Q77,20 75,20 Z" fill="#00bffe"/>
  <path d="M95,10 L115,10 Q120,10 122.5,12.5 Q125,15 125,20 L125,35 Q125,40 120,40 L95,40 L95,10 Z M105,20 L105,30 L115,30 Q117,30 117,25 Q117,20 115,20 Z" fill="#00bffe"/>
  <path d="M135,10 L155,10 Q160,10 162.5,12.5 Q165,15 165,20 L165,35 Q165,40 160,40 L135,40 L135,10 Z M145,20 L145,30 L155,30 Q157,30 157,25 Q157,20 155,20 Z" fill="#00bffe"/>
  <path d="M175,10 L195,10 Q200,10 202.5,12.5 Q205,15 205,20 L205,35 Q205,40 200,40 L175,40 L175,10 Z M185,20 L185,30 L195,30 Q197,30 197,25 Q197,20 195,20 Z" fill="#00bffe"/>
  <path d="M215,10 L235,10 Q240,10 242.5,12.5 Q245,15 245,20 L245,35 Q245,40 240,40 L215,40 L215,10 Z M225,20 L225,30 L235,30 Q237,30 237,25 Q237,20 235,20 Z" fill="#00bffe"/>
</svg>
